<?xml version="1.0" encoding="UTF-8" standalone="no"?>
<!-- Created with Inkscape (http://www.inkscape.org/) -->

<svg
   xmlns:dc="http://purl.org/dc/elements/1.1/"
   xmlns:cc="http://creativecommons.org/ns#"
   xmlns:rdf="http://www.w3.org/1999/02/22-rdf-syntax-ns#"
   xmlns:svg="http://www.w3.org/2000/svg"
   xmlns="http://www.w3.org/2000/svg"
   xmlns:sodipodi="http://sodipodi.sourceforge.net/DTD/sodipodi-0.dtd"
   xmlns:inkscape="http://www.inkscape.org/namespaces/inkscape"
   id="svg9508"
   version="1.1"
   inkscape:version="0.48.4 r9939"
   width="400.85751"
   height="387.45499"
   xml:space="preserve"
   sodipodi:docname="roboticslab.ai"><metadata
     id="metadata9514"><rdf:RDF><cc:Work
         rdf:about=""><dc:format>image/svg+xml</dc:format><dc:type
           rdf:resource="http://purl.org/dc/dcmitype/StillImage" /><dc:title></dc:title></cc:Work></rdf:RDF></metadata><defs
     id="defs9512"><clipPath
       clipPathUnits="userSpaceOnUse"
       id="clipPath9522"><path
         d="m 0,389.025 413.415,0 L 413.415,0 0,0 0,389.025 z"
         id="path9524"
         inkscape:connector-curvature="0" /></clipPath><clipPath
       clipPathUnits="userSpaceOnUse"
       id="clipPath9534"><path
         d="m 67.0601,297.039 274.5449,0 0,-256.9501 -274.5449,0 0,256.9501 z"
         id="path9536"
         inkscape:connector-curvature="0" /></clipPath><clipPath
       clipPathUnits="userSpaceOnUse"
       id="clipPath9548"><path
         d="m 178.286,297.19 54.603,0 0,-41.406 -54.603,0 0,41.406 z"
         id="path9550"
         inkscape:connector-curvature="0" /></clipPath><clipPath
       clipPathUnits="userSpaceOnUse"
       id="clipPath9564"><path
         d="m 217.221,168.206 84.667,0 0,-105.0859 -84.667,0 0,105.0859 z"
         id="path9566"
         inkscape:connector-curvature="0" /></clipPath><clipPath
       clipPathUnits="userSpaceOnUse"
       id="clipPath9588"><path
         d="m 76.6758,294.687 89.8742,0 0,-68.947 -89.8742,0 0,68.947 z"
         id="path9590"
         inkscape:connector-curvature="0" /></clipPath><clipPath
       clipPathUnits="userSpaceOnUse"
       id="clipPath9608"><path
         d="m 245.786,293.772 86.515,0 0,-67.364 -86.515,0 0,67.364 z"
         id="path9610"
         inkscape:connector-curvature="0" /></clipPath><clipPath
       clipPathUnits="userSpaceOnUse"
       id="clipPath9644"><path
         d="m 108.906,168.746 90.315,0 0,-104.7245 -90.315,0 0,104.7245 z"
         id="path9646"
         inkscape:connector-curvature="0" /></clipPath></defs><sodipodi:namedview
     pagecolor="#ffffff"
     bordercolor="#666666"
     borderopacity="1"
     objecttolerance="10"
     gridtolerance="10"
     guidetolerance="10"
     inkscape:pageopacity="0"
     inkscape:pageshadow="2"
     inkscape:window-width="1920"
     inkscape:window-height="1017"
     id="namedview9510"
     showgrid="false"
     fit-margin-top="0"
     fit-margin-left="0"
     fit-margin-right="0"
     fit-margin-bottom="0"
     inkscape:zoom="1.3726805"
     inkscape:cx="47.3697"
     inkscape:cy="163.78025"
     inkscape:window-x="-8"
     inkscape:window-y="-8"
     inkscape:window-maximized="1"
     inkscape:current-layer="g9516" /><g
     id="g9516"
     inkscape:groupmode="layer"
     inkscape:label="roboticslab"
     transform="matrix(1.25,0,0,-1.25,-56.873875,437.32375)"><g
       id="g9518"><g
         id="g9520"
         clip-path="url(#clipPath9522)"><g
           id="g9526"
           transform="translate(366.1851,194.875)"><path
             d="m 0,0 c 0,-85.593 -71.785,-154.98 -160.342,-154.98 -88.556,0 -160.344,69.387 -160.344,154.98 0,85.595 71.788,154.984 160.344,154.984 C -71.785,154.984 0,85.595 0,0"
             style="fill:#55bae8;fill-opacity:1;fill-rule:nonzero;stroke:none"
             id="path9528"
             inkscape:connector-curvature="0" /></g><g
           id="g9530"><g
             id="g9532" /><g
             id="g9538"><g
               clip-path="url(#clipPath9534)"
               id="g9540"
               style="opacity:0.5"><path
                 d="m 341.605,40.089 -274.545,0 0,256.95 274.545,0 0,-256.95 z"
                 style="fill:#2f99c2;fill-opacity:1;fill-rule:nonzero;stroke:none"
                 id="path9542"
                 inkscape:connector-curvature="0" /></g></g></g><g
           id="g9544"><g
             id="g9546" /><g
             id="g9552"><g
               clip-path="url(#clipPath9548)"
               id="g9554"
               style="opacity:0.5"><g
                 transform="translate(205.5898,297.1904)"
                 id="g9556"><path
                   d="m 0,0 c -15.081,0 -27.304,-12.389 -27.304,-27.672 0,-4.999 1.317,-9.686 3.606,-13.734 l 7.312,0 c -0.025,0.341 32.792,0.341 32.768,0 l 7.314,0 c 2.29,4.048 3.603,8.735 3.603,13.734 C 27.299,-12.389 15.078,0 0,0"
                   style="fill:#436478;fill-opacity:1;fill-rule:nonzero;stroke:none"
                   id="path9558"
                   inkscape:connector-curvature="0" /></g></g></g></g><g
           id="g9560"><g
             id="g9562" /><g
             id="g9568"><g
               clip-path="url(#clipPath9564)"
               id="g9570"
               style="opacity:0.5"><g
                 transform="translate(274.0229,68.2832)"
                 id="g9572"><path
                   d="m 0,0 c 4.73,-6.498 14.215,-6.919 21.182,-0.938 6.966,5.983 8.781,16.099 4.047,22.599 L -28.937,94.76 c -4.733,6.498 -14.213,6.92 -21.178,0.936 -6.969,-5.983 -8.783,-16.098 -4.051,-22.597 L 0,0 z"
                   style="fill:#538e98;fill-opacity:1;fill-rule:nonzero;stroke:none"
                   id="path9574"
                   inkscape:connector-curvature="0" /></g></g></g></g><g
           id="g9576"
           transform="translate(243.3511,189.123)"><path
             d="m 0,0 c 0,-7.455 -5.962,-13.497 -13.318,-13.497 l -46.728,0 c -7.356,0 -13.32,6.042 -13.32,13.497 l 0,48.42 c 0,7.456 5.964,13.5 13.32,13.5 l 46.728,0 C -5.962,61.92 0,55.876 0,48.42 L 0,0 z"
             style="fill:#ffffff;fill-opacity:1;fill-rule:nonzero;stroke:none"
             id="path9578"
             inkscape:connector-curvature="0" /></g><g
           id="g9580"
           transform="translate(205.7861,296.2187)"><path
             d="m 0,0 c -14.168,0 -25.655,-11.643 -25.655,-26.005 0,-4.699 1.237,-9.102 3.387,-12.908 l 6.872,0 c -0.022,0.321 -0.048,0.638 -0.048,0.966 l 0,5.673 c 0,7.077 5.662,12.817 12.646,12.817 l 5.599,0 c 6.986,0 12.646,-5.74 12.646,-12.817 l 0,-5.673 c 0,-0.328 -0.027,-0.645 -0.048,-0.966 l 6.868,0 c 2.155,3.806 3.393,8.209 3.393,12.908 C 25.66,-11.643 14.17,0 0,0"
             style="fill:#ffffff;fill-opacity:1;fill-rule:nonzero;stroke:none"
             id="path9582"
             inkscape:connector-curvature="0" /></g><g
           id="g9584"><g
             id="g9586" /><g
             id="g9592"><g
               clip-path="url(#clipPath9588)"
               id="g9594"
               style="opacity:0.5"><g
                 transform="translate(159.4297,249.1416)"
                 id="g9596"><path
                   d="m 0,0 -61.119,41.988 -13.365,-20.61 61.124,-41.985 c 6.667,-4.467 15.064,-3.47 18.752,2.22 C 9.083,-12.693 6.669,-4.463 0,0"
                   style="fill:#538e98;fill-opacity:1;fill-rule:nonzero;stroke:none"
                   id="path9598"
                   inkscape:connector-curvature="0" /></g><g
                 transform="translate(95.208,293.0137)"
                 id="g9600"><path
                   d="m 0,0 c -6.278,3.107 -13.467,1.823 -16.808,-3.332 -3.339,-5.148 -1.666,-12.372 3.62,-17.009 L 0,0 z"
                   style="fill:#538e98;fill-opacity:1;fill-rule:nonzero;stroke:none"
                   id="path9602"
                   inkscape:connector-curvature="0" /></g></g></g></g><g
           id="g9604"><g
             id="g9606" /><g
             id="g9612"><g
               clip-path="url(#clipPath9608)"
               id="g9614"
               style="opacity:0.5"><g
                 transform="translate(252.6802,250.0469)"
                 id="g9616"><path
                   d="M 0,0 58.884,40.432 71.616,19.353 12.728,-21.078 C 6.306,-25.376 -1.751,-24.138 -5.265,-18.315 -8.779,-12.493 -6.423,-4.295 0,0"
                   style="fill:#538e98;fill-opacity:1;fill-rule:nonzero;stroke:none"
                   id="path9618"
                   inkscape:connector-curvature="0" /></g><g
                 transform="translate(314.5513,292.2852)"
                 id="g9620"><path
                   d="m 0,0 c 6.044,2.94 12.938,1.446 16.122,-3.826 3.183,-5.266 1.541,-12.475 -3.558,-16.981 L 0,0 z"
                   style="fill:#538e98;fill-opacity:1;fill-rule:nonzero;stroke:none"
                   id="path9622"
                   inkscape:connector-curvature="0" /></g></g></g></g><g
           id="g9624"
           transform="translate(263.1626,224.9004)"><path
             d="m 0,0 60.436,0 0,24.708 -60.436,0 c -9.074,0 -16.431,-5.532 -16.431,-12.355 C -16.431,5.531 -9.074,0 0,0"
             style="fill:#ffffff;fill-opacity:1;fill-rule:nonzero;stroke:none"
             id="path9626"
             inkscape:connector-curvature="0" /></g><g
           id="g9628"
           transform="translate(327.7017,225.0625)"><path
             d="M 0,0 C 7.87,0.916 13.903,6.019 13.903,12.19 13.903,18.365 7.87,23.467 0,24.385 L 0,0 z"
             style="fill:#ffffff;fill-opacity:1;fill-rule:nonzero;stroke:none"
             id="path9630"
             inkscape:connector-curvature="0" /></g><g
           id="g9632"
           transform="translate(220.3384,137.251)"><path
             d="m 0,0 -3.992,0 0,-78.399 c 0,-9.334 7.466,-16.904 16.677,-16.904 l 0.152,0 c 9.21,0 16.679,7.57 16.679,16.904 l 0,92.477 c 0,9.334 -7.469,16.901 -16.679,16.901 l -0.152,0 c -0.723,0 -1.434,-0.046 -2.134,-0.139 C 9.86,30.754 11.246,7.622 10.571,7.446 9.542,-0.147 0,0 0,0"
             style="fill:#ffffff;fill-opacity:1;fill-rule:nonzero;stroke:none"
             id="path9634"
             inkscape:connector-curvature="0" /></g><g
           id="g9636"
           transform="translate(213.6987,151.3848)"><path
             d="m 0,0 c 0,-3.717 2.973,-6.729 6.64,-6.729 3.665,0 6.637,3.012 6.637,6.729 l 0,11.536 c 0,3.713 -2.972,6.728 -6.637,6.728 C 2.973,18.264 0,15.249 0,11.536 L 0,0 z"
             style="fill:#ffffff;fill-opacity:1;fill-rule:nonzero;stroke:none"
             id="path9638"
             inkscape:connector-curvature="0" /></g><g
           id="g9640"><g
             id="g9642" /><g
             id="g9648"><g
               clip-path="url(#clipPath9644)"
               id="g9650"
               style="opacity:0.5"><g
                 transform="translate(137.9087,69.2998)"
                 id="g9652"><path
                   d="m 0,0 c -5.101,-6.502 -15.071,-7.076 -22.266,-1.278 -7.197,5.797 -8.896,15.769 -3.793,22.274 l 58.372,73.17 c 5.097,6.503 15.067,7.08 22.263,1.281 7.196,-5.8 8.895,-15.771 3.793,-22.275 L 0,0 z"
                   style="fill:#538e98;fill-opacity:1;fill-rule:nonzero;stroke:none"
                   id="path9654"
                   inkscape:connector-curvature="0" /></g></g></g></g><g
           id="g9656"
           transform="translate(193.3447,137.251)"><path
             d="m 0,0 3.993,0 0,-78.399 c 0,-9.334 -7.467,-16.904 -16.678,-16.904 l -0.151,0 c -9.21,0 -16.68,7.57 -16.68,16.904 l 0,92.477 c 0,9.334 7.47,16.901 16.68,16.901 l 0.151,0 c 0.724,0 1.435,-0.046 2.132,-0.139 C -9.861,30.754 -11.246,7.622 -10.57,7.446 -9.542,-0.147 0,0 0,0"
             style="fill:#ffffff;fill-opacity:1;fill-rule:nonzero;stroke:none"
             id="path9658"
             inkscape:connector-curvature="0" /></g><g
           id="g9660"
           transform="translate(199.9844,151.3848)"><path
             d="m 0,0 c 0,-3.717 -2.974,-6.729 -6.64,-6.729 -3.666,0 -6.637,3.012 -6.637,6.729 l 0,11.536 c 0,3.713 2.971,6.728 6.637,6.728 3.666,0 6.64,-3.015 6.64,-6.728 L 0,0 z"
             style="fill:#ffffff;fill-opacity:1;fill-rule:nonzero;stroke:none"
             id="path9662"
             inkscape:connector-curvature="0" /></g><g
           id="g9664"
           transform="translate(148.686,250.583)"><path
             d="m 0,0 -62.891,0 0,-24.708 62.891,0 c 9.441,0 17.092,5.531 17.092,12.357 C 17.092,-5.532 9.441,0 0,0"
             style="fill:#ffffff;fill-opacity:1;fill-rule:nonzero;stroke:none"
             id="path9666"
             inkscape:connector-curvature="0" /></g><g
           id="g9668"
           transform="translate(81.5273,250.4219)"><path
             d="m 0,0 c -8.19,-0.918 -14.467,-6.02 -14.467,-12.189 0,-6.177 6.277,-11.28 14.467,-12.196 L 0,0 z"
             style="fill:#ffffff;fill-opacity:1;fill-rule:nonzero;stroke:none"
             id="path9670"
             inkscape:connector-curvature="0" /></g></g></g></g></svg>